<svg xmlns="http://www.w3.org/2000/svg" width="36.448" height="70"><path d="M158.547 42.616a14.118 14.118 0 0 0-1.23-2.987 10.108 10.108 0 0 0-2.07-2.481 24.718 24.718 0 0 0-2.422-1.953 23.611 23.611 0 0 0-2.949-1.661q-1.874-.918-2.968-1.368t-3.165-1.23q-1.836-.7-2.735-1.074t-2.363-1.055a13.773 13.773 0 0 1-2.187-1.211 17.189 17.189 0 0 1-1.543-1.289 4.4 4.4 0 0 1-1.153-1.621 5.252 5.252 0 0 1 2.012-6.211 10.156 10.156 0 0 1 6.055-1.679 13.018 13.018 0 0 1 3.34.449 17.467 17.467 0 0 1 2.91 1.015 20.211 20.211 0 0 1 2.286 1.25q1.074.684 1.524 1.035c.3.235.489.391.567.469a1.245 1.245 0 0 0 1.054.274 1.066 1.066 0 0 0 .9-.625l3.165-5.7a1.13 1.13 0 0 0-.2-1.485c-.157-.156-.351-.338-.587-.547s-.742-.586-1.524-1.133a18.855 18.855 0 0 0-2.48-1.465 25.083 25.083 0 0 0-3.4-1.308 21.669 21.669 0 0 0-4.317-.9V1.25A1.2 1.2 0 0 0 143.821 0h-5.274a1.2 1.2 0 0 0-.879.371 1.2 1.2 0 0 0-.371.879v7.031a17.872 17.872 0 0 0-9.961 5.234 13.358 13.358 0 0 0-3.828 9.453 13.565 13.565 0 0 0 .332 3.046 15.6 15.6 0 0 0 .82 2.6 9.56 9.56 0 0 0 1.387 2.266 24.263 24.263 0 0 0 1.7 1.914 13.8 13.8 0 0 0 2.09 1.66q1.289.86 2.207 1.387t2.441 1.21q1.523.684 2.4 1.036t2.4.976q2.109.82 3.125 1.27t2.579 1.25a10.7 10.7 0 0 1 2.285 1.465 7.341 7.341 0 0 1 1.309 1.641 3.957 3.957 0 0 1 .587 2.071 5.468 5.468 0 0 1-2.4 4.765 9.469 9.469 0 0 1-5.567 1.68 13.647 13.647 0 0 1-2.89-.312 20.408 20.408 0 0 1-9.492-4.884l-.078-.078a.969.969 0 0 0-.937-.351 1.214 1.214 0 0 0-.9.469l-4.024 5.273a1.186 1.186 0 0 0 .078 1.6q.2.235.684.7a22.605 22.605 0 0 0 1.817 1.466 23.971 23.971 0 0 0 6.859 3.612 24.662 24.662 0 0 0 4.981 1.21v6.84A1.267 1.267 0 0 0 138.55 70h5.274a1.2 1.2 0 0 0 1.25-1.25v-6.836a16.772 16.772 0 0 0 10.1-5.332 14.862 14.862 0 0 0 3.887-10.293 12.842 12.842 0 0 0-.514-3.673Z" style="fill:#fff" transform="translate(-122.611)"/></svg>