<svg xmlns="http://www.w3.org/2000/svg" width="55.001" height="70"><defs><style>.a{fill:#fff}</style></defs><path class="a" d="M23.71-.003a2.6 2.6 0 0 0-1.852.742 2.344 2.344 0 0 0-.783 1.758v16.25a2.345 2.345 0 0 1-.782 1.758 2.683 2.683 0 0 1-3.705 0 2.343 2.343 0 0 1-.782-1.758V2.497a2.344 2.344 0 0 0-.782-1.755 2.683 2.683 0 0 0-3.7 0 2.345 2.345 0 0 0-.787 1.755v16.25a2.345 2.345 0 0 1-.782 1.758 2.682 2.682 0 0 1-3.7 0 2.343 2.343 0 0 1-.782-1.758V2.497A2.344 2.344 0 0 0 4.489.742a2.683 2.683 0 0 0-3.7 0A2.345 2.345 0 0 0 0 2.497v25a7.064 7.064 0 0 0 1.461 4.336 7.666 7.666 0 0 0 3.807 2.734v30.43a4.689 4.689 0 0 0 1.564 3.515 5.2 5.2 0 0 0 3.705 1.485h5.268a5.2 5.2 0 0 0 3.7-1.485 4.687 4.687 0 0 0 1.569-3.515V34.569a7.669 7.669 0 0 0 3.807-2.734 7.065 7.065 0 0 0 1.461-4.338v-25a2.346 2.346 0 0 0-.781-1.755 2.6 2.6 0 0 0-1.851-.745ZM54.219.742A2.6 2.6 0 0 0 52.367 0H41.83a13.031 13.031 0 0 0-9.3 3.672 11.739 11.739 0 0 0-3.87 8.828v31.25a1.176 1.176 0 0 0 .391.879 1.3 1.3 0 0 0 .924.371h9.22v20a4.689 4.689 0 0 0 1.564 3.515A5.2 5.2 0 0 0 44.465 70h5.267a5.2 5.2 0 0 0 3.7-1.484A4.689 4.689 0 0 0 55.002 65V2.5a2.348 2.348 0 0 0-.783-1.758Z"/></svg>