<svg xmlns="http://www.w3.org/2000/svg" width="16" height="13.714"><path d="M14.866 1.107A4.294 4.294 0 0 0 11.732 0a3.56 3.56 0 0 0-1.129.192A4.565 4.565 0 0 0 9.532.71q-.5.326-.853.612A8.25 8.25 0 0 0 8 1.929a8.261 8.261 0 0 0-.679-.607q-.357-.286-.853-.612A4.571 4.571 0 0 0 5.4.192 3.561 3.561 0 0 0 4.271 0a4.294 4.294 0 0 0-3.134 1.107A4.1 4.1 0 0 0 0 4.179a3.912 3.912 0 0 0 .21 1.232 5.4 5.4 0 0 0 .478 1.08 7.9 7.9 0 0 0 .607.871q.339.424.5.585a2.945 2.945 0 0 0 .246.232l5.566 5.374a.56.56 0 0 0 .786 0l5.563-5.357A5.837 5.837 0 0 0 16 4.179a4.1 4.1 0 0 0-1.134-3.072Z"/></svg>