<svg xmlns="http://www.w3.org/2000/svg" width="70" height="55.342"><path d="M69.688 64.926a49.288 49.288 0 0 0-.937-4.845 13.175 13.175 0 0 0-1.851-4.374 3.421 3.421 0 0 0-2.754-1.8q-.175-.762-1.7.176t-1.425.625q.1-.313-1.055.781l-1.152 1.094-1.153 1.152a10.029 10.029 0 0 1-4.433 2.207 31.464 31.464 0 0 1-6.387.938q-3.477.176-6.973.235t-7.012.351a25.579 25.579 0 0 0-5.664 1 36.522 36.522 0 0 0-7.969 3.731 34.1 34.1 0 0 0-6.66 5.43 23.313 23.313 0 0 0-4.653 7.205 22.241 22.241 0 0 0-1.7 8.594 23.336 23.336 0 0 0 .351 4.063 12.771 12.771 0 0 0 .625 1.719 9.641 9.641 0 0 1 .547 1.485q0 .741-1.211 1.874a28.192 28.192 0 0 1-2.656 2.188 14.048 14.048 0 0 0-2.656 2.558A4.668 4.668 0 0 0 0 104.184a2.323 2.323 0 0 0 .059.528 1.8 1.8 0 0 0 .118.37c.039.079.111.208.215.39s.182.326.235.43a17.2 17.2 0 0 0 1.055 1.641 3.625 3.625 0 0 0 1.211.938 4.252 4.252 0 0 0 1.992.429 3.4 3.4 0 0 0 2.344-1.249 13.437 13.437 0 0 0 2.051-2.734 27.467 27.467 0 0 1 1.758-2.734q.918-1.249 1.543-1.25a11.537 11.537 0 0 1 3.75 1.446q2.851 1.446 3.438 1.641a34.416 34.416 0 0 0 11.172 1.836 37.578 37.578 0 0 0 17.11-4.22 44.516 44.516 0 0 0 13.962-10.47 32.178 32.178 0 0 0 7.207-14.961 37.72 37.72 0 0 0 .78-7.539 28.344 28.344 0 0 0-.312-3.75ZM49.257 78.168a2.4 2.4 0 0 1-1.759.742 33.275 33.275 0 0 0-12.246 2.031 35.316 35.316 0 0 0-10.488 6.875q-.78.742-2.617 2.578t-2.89 2.773a2.583 2.583 0 0 1-1.758.743 2.535 2.535 0 0 1-2.5-2.5 2.583 2.583 0 0 1 .742-1.758 64.837 64.837 0 0 1 9.2-8.574 36.437 36.437 0 0 1 10.137-5.234A38.449 38.449 0 0 1 47.5 73.91a2.486 2.486 0 0 1 1.759 4.258Z" transform="translate(0 -53.568)" style="fill:#fff"/></svg>