<svg xmlns="http://www.w3.org/2000/svg" width="16" height="13.539"><path d="M11.401 12.006a1.533 1.533 0 1 0 .449-1.084 1.477 1.477 0 0 0-.449 1.084Z"/><path d="M15.817 1.336a.609.609 0 0 0-.433-.173H3.837q-.01-.064-.043-.232T3.741.663a1.536 1.536 0 0 0-.072-.241.713.713 0 0 0-.125-.223.621.621 0 0 0-.466-.2H.616a.609.609 0 0 0-.433.173.549.549 0 0 0 0 .818.609.609 0 0 0 .433.173h1.961l1.7 7.482q-.019.036-.2.345t-.284.541a.956.956 0 0 0-.106.359.545.545 0 0 0 .183.409.61.61 0 0 0 .433.173h9.846a.61.61 0 0 0 .433-.173.549.549 0 0 0 0-.818.609.609 0 0 0-.433-.173H5.308a1.694 1.694 0 0 0 .231-.582.931.931 0 0 0-.024-.2q-.024-.109-.058-.241t-.043-.2l10.039-1.109a.608.608 0 0 0 .394-.2A.555.555 0 0 0 16 6.4V1.746a.545.545 0 0 0-.183-.41Z"/><path d="M3.527 12.006a1.533 1.533 0 1 0 .449-1.084 1.476 1.476 0 0 0-.449 1.084Z"/></svg>