<svg xmlns="http://www.w3.org/2000/svg" width="16" height="17.333"><path d="M15.49 9.688a3.011 3.011 0 0 0 .51-1.7 2.7 2.7 0 0 0-2.666-2.656H11.5a4.573 4.573 0 0 0 .5-2 4.322 4.322 0 0 0-.364-1.932A2.289 2.289 0 0 0 10.573.338 3.558 3.558 0 0 0 9 0a1.321 1.321 0 0 0-.938.385 2.5 2.5 0 0 0-.645 1.126q-.2.687-.318 1.318a1.768 1.768 0 0 1-.37.891q-.512.551-1.112 1.332A9.214 9.214 0 0 1 4.19 6.667H1.333A1.334 1.334 0 0 0 0 8v6.666A1.334 1.334 0 0 0 1.333 16h3a7.7 7.7 0 0 1 1.437.417q1.281.448 2.255.682a8.406 8.406 0 0 0 1.974.234h1.344a3.32 3.32 0 0 0 2.365-.839 2.95 2.95 0 0 0 .886-2.286 2.932 2.932 0 0 0 .625-1.854 3.151 3.151 0 0 0-.031-.448 2.991 2.991 0 0 0 .4-1.5 2.72 2.72 0 0 0-.098-.718ZM2.469 14.469a.654.654 0 1 1 .2-.469.641.641 0 0 1-.2.469Zm11.974-5.625q-.224.479-.557.489a1.407 1.407 0 0 1 .26.495 1.873 1.873 0 0 1 .1.578 1.646 1.646 0 0 1-.552 1.239 1.44 1.44 0 0 1 .188.719 1.754 1.754 0 0 1-.182.766 1.161 1.161 0 0 1-.495.547 3.562 3.562 0 0 1 .052.583q0 1.739-2 1.739h-1.26a11.509 11.509 0 0 1-3.563-.76q-.052-.021-.3-.109l-.37-.13q-.12-.042-.365-.12t-.4-.115q-.151-.036-.344-.068a2.1 2.1 0 0 0-.328-.031h-.333V8h.333a.9.9 0 0 0 .37-.094 1.761 1.761 0 0 0 .417-.281q.214-.188.4-.37a5.926 5.926 0 0 0 .417-.458q.229-.276.359-.443t.328-.427l.24-.313q.573-.708.8-.948a2.645 2.645 0 0 0 .62-1.141q.193-.693.318-1.307a1.724 1.724 0 0 1 .4-.885 1.516 1.516 0 0 1 1.333.49 2.72 2.72 0 0 1 .333 1.51 4.254 4.254 0 0 1-.5 1.672 4.249 4.249 0 0 0-.5 1.661h3.667a1.283 1.283 0 0 1 .927.4 1.27 1.27 0 0 1 .411.934 2.047 2.047 0 0 1-.224.844Z"/></svg>